HIERARCHY
ROOT Hips
{
	OFFSET 0.000000 0.000000 0.000000
	CHANNELS 6 Xposition Yposition Zposition Xrotation Yrotation Zrotation
	JOINT LeftUpLeg_virtual
	{
		OFFSET 0.000000 0.000000 0.000000
		CHANNELS 3 Xrotation Yrotation Zrotation
		JOINT LeftUpLeg
		{
			OFFSET 10.205400 -3.823500 0.155100
			CHANNELS 3 Xrotation Yrotation Zrotation
			JOINT LeftLeg
			{
				OFFSET 0.708757 -12.982077 0.567790
				CHANNELS 3 Xrotation Yrotation Zrotation
				JOINT LeftFoot
				{
					OFFSET -0.708756 -10.717838 -2.184338
					CHANNELS 3 Xrotation Yrotation Zrotation
					JOINT LeftToeBase
					{
						OFFSET 0.108149 -7.191104 7.560241
						CHANNELS 3 Xrotation Yrotation Zrotation
						JOINT LeftToe_End
						{
							OFFSET 0.070230 0.081724 4.490308
							CHANNELS 3 Xrotation Yrotation Zrotation
							End Site
							{
								OFFSET 0 0 0
							}
						}
					}
				}
			}
		}
	}
	JOINT RightUpLeg_virtual
	{
		OFFSET 0.000000 0.000000 0.000000
		CHANNELS 3 Xrotation Yrotation Zrotation
		JOINT RightUpLeg
		{
			OFFSET -10.205400 -3.823500 0.005500
			CHANNELS 3 Xrotation Yrotation Zrotation
			JOINT RightLeg
			{
				OFFSET -0.708756 -12.982134 0.610632
				CHANNELS 3 Xrotation Yrotation Zrotation
				JOINT RightFoot
				{
					OFFSET 0.708754 -10.717769 -1.945823
					CHANNELS 3 Xrotation Yrotation Zrotation
					JOINT RightToeBase
					{
						OFFSET -0.108140 -7.191069 7.372968
						CHANNELS 3 Xrotation Yrotation Zrotation
						JOINT RightToe_End
						{
							OFFSET -0.070227 0.081735 4.479403
							CHANNELS 3 Xrotation Yrotation Zrotation
							End Site
							{
								OFFSET 0 0 0
							}
						}
					}
				}
			}
		}
	}
	JOINT Spine_virtual
	{
		OFFSET 0.000000 0.000000 0.000000
		CHANNELS 3 Xrotation Yrotation Zrotation
		JOINT Spine
		{
			OFFSET 0.000000 6.876099 0.125700
			CHANNELS 3 Xrotation Yrotation Zrotation
			JOINT Spine1
			{
				OFFSET 0.000000 5.730043 0.104720
				CHANNELS 3 Xrotation Yrotation Zrotation
				JOINT Spine1_split
				{
					OFFSET 0.000000 5.730043 0.104720
					CHANNELS 3 Xrotation Yrotation Zrotation
					JOINT Spine2
					{
						OFFSET 0.000000 5.730043 0.104720
						CHANNELS 3 Xrotation Yrotation Zrotation
						JOINT Neck_virtual
						{
							OFFSET 0.000000 0.000000 0.000000
							CHANNELS 3 Xrotation Yrotation Zrotation
							JOINT Neck
							{
								OFFSET 0.000000 10.314075 0.188496
								CHANNELS 3 Xrotation Yrotation Zrotation
								JOINT Head
								{
									OFFSET 0.000000 7.643700 -2.377400
									CHANNELS 3 Xrotation Yrotation Zrotation
									JOINT HeadTop_End
									{
										OFFSET 0.000000 43.788605 -13.619600
										CHANNELS 3 Xrotation Yrotation Zrotation
										End Site
										{
											OFFSET 0 0 0
										}
									}
								}
							}
						}
						JOINT LeftShoulder_virtual
						{
							OFFSET 0.000000 0.000000 0.000000
							CHANNELS 3 Xrotation Yrotation Zrotation
							JOINT LeftShoulder
							{
								OFFSET 2.196100 4.412489 0.087492
								CHANNELS 3 Xrotation Yrotation Zrotation
								JOINT LeftShoulder_split
								{
									OFFSET 2.196100 4.412489 0.087492
									CHANNELS 3 Xrotation Yrotation Zrotation
									JOINT LeftArm
									{
										OFFSET 8.771219 -2.981674 -0.026999
										CHANNELS 3 Xrotation Yrotation Zrotation
										JOINT LeftForeArm
										{
											OFFSET 8.512804 0.000000 -0.000000
											CHANNELS 3 Xrotation Yrotation Zrotation
											JOINT LeftHand
											{
												OFFSET 18.484802 0.000000 -0.000000
												CHANNELS 3 Xrotation Yrotation Zrotation
												End Site
												{
													OFFSET 0 0 0
												}
											}
										}
									}
								}
							}
						}
						JOINT RightShoulder_virtual
						{
							OFFSET 0.000000 0.000000 0.000000
							CHANNELS 3 Xrotation Yrotation Zrotation
							JOINT RightShoulder
							{
								OFFSET -2.196100 4.412496 0.070690
								CHANNELS 3 Xrotation Yrotation Zrotation
								JOINT RightShoulder_split
								{
									OFFSET -2.196100 4.412496 0.070690
									CHANNELS 3 Xrotation Yrotation Zrotation
									JOINT RightArm
									{
										OFFSET -8.771282 -2.981682 -0.094208
										CHANNELS 3 Xrotation Yrotation Zrotation
										JOINT RightForeArm
										{
											OFFSET -8.494598 0.000000 0.000000
											CHANNELS 3 Xrotation Yrotation Zrotation
											JOINT RightHand
											{
												OFFSET -18.483803 0.000000 0.000001
												CHANNELS 3 Xrotation Yrotation Zrotation
												End Site
												{
													OFFSET 0 0 0
												}
											}
										}
									}
								}
							}
						}
					}
				}
			}
		}
	}
}
MOTION
Frames: 9
Frame Time: 0.03333333
4.945795 24.964937 -1.613897 0.000000 0.000000 0.000000 16.190120 -80.940583 16.822087 -39.194699 -18.077322 35.148888 54.091857 -12.048911 11.849341 -16.773959 0.240274 -34.919199 -1.643276 1.311260 -2.299799 0.000000 0.000000 0.000000 13.422862 -81.202992 15.276903 -9.645210 10.455732 -42.450459 47.299436 15.621611 -11.711104 -26.436193 -6.353490 38.047446 -11.873354 0.987031 0.430814 0.000000 0.000000 0.000000 20.536897 -77.630878 20.834300 1.725609 4.912974 3.203055 0.931346 3.508385 1.147445 1.671439 -2.512784 1.108385 0.000000 0.000000 0.000000 0.992133 3.318013 0.988235 -2.913037 7.947263 -1.539178 0.990137 38.627244 -4.439395 0.000000 0.000000 0.000000 0.950287 3.588686 1.063723 1.282670 10.097514 -9.994206 -2.738988 -1.633754 -2.056535 -11.153819 11.612493 -65.873452 -179.838512 -64.203922 -177.095535 0.000000 0.000000 0.000000 1.787987 3.736930 0.584449 1.814755 9.488695 10.362380 -1.006125 3.212248 3.214790 -15.403823 33.912900 47.572145 -178.038443 73.559819 177.646759 0.000000 0.000000 0.000000 
4.903659 24.751835 -1.558128 0.000000 0.000000 0.000000 10.756541 -80.489873 11.250875 -40.035588 -17.521255 34.988621 53.406431 -13.214903 13.071589 -16.588598 -2.493501 -35.773970 -2.973339 1.433566 -1.969739 0.000000 0.000000 0.000000 8.918265 -79.571622 10.528850 -7.966406 8.165300 -41.739921 48.043376 13.972343 -12.282267 -26.381525 -7.713324 36.811386 -12.382147 0.610408 1.959143 0.000000 0.000000 0.000000 18.547758 -76.751102 18.448781 1.253069 5.158714 3.089724 0.841658 3.626803 1.161841 1.550458 -3.399293 1.152442 0.000000 0.000000 0.000000 0.819564 3.465433 0.960550 -2.332146 7.542202 -1.584448 1.798671 37.411350 -4.257683 0.000000 0.000000 0.000000 0.953955 3.651684 1.101178 1.137402 9.967629 -8.995474 -2.183050 -1.345191 -3.204433 -9.218708 8.964759 -66.044582 179.729762 -64.123004 -177.307544 0.000000 0.000000 0.000000 1.482911 3.825367 0.623053 1.868931 8.994591 9.584508 -1.314302 4.022078 3.329380 -13.583308 32.774721 47.127298 -177.224011 72.030608 176.696652 0.000000 0.000000 0.000000 
4.819785 25.709082 -1.514804 0.000000 0.000000 0.000000 6.546556 -77.800445 6.915576 -40.622605 -16.084371 33.515619 47.591754 -15.753864 12.986685 -12.054245 -7.694966 -37.725068 -3.560205 1.326585 -1.120269 0.000000 0.000000 0.000000 6.592087 -76.176861 8.137075 -6.676192 5.494123 -40.034198 46.690200 12.969248 -12.915890 -21.338158 -7.208269 37.110255 -16.787811 -0.138258 3.842736 0.000000 0.000000 0.000000 14.630084 -74.637903 14.237792 0.884859 5.173290 3.019591 0.610906 3.625147 1.087993 1.080646 -4.087390 1.147123 0.000000 0.000000 0.000000 0.598385 3.484630 0.874082 -1.692806 7.098982 -1.607798 2.672556 35.481436 -3.566516 0.000000 0.000000 0.000000 0.822904 3.612259 1.054963 0.989013 9.414290 -7.576716 -1.286941 -0.819806 -4.006687 -7.301519 4.856787 -64.335273 179.558980 -63.725501 -177.578430 0.000000 0.000000 0.000000 1.085898 3.773809 0.593735 1.838934 8.453379 8.642756 -1.662759 4.682898 3.251814 -11.142020 30.595143 46.249571 -177.258750 69.396108 176.563669 0.000000 0.000000 0.000000 
4.688511 27.610535 -1.541346 0.000000 0.000000 0.000000 4.863250 -73.432511 5.117302 -40.151438 -13.618325 31.328520 38.083834 -18.071284 10.997198 -4.411667 -13.597303 -38.358967 -2.927099 1.064657 -0.161309 0.000000 0.000000 0.000000 5.359094 -71.540289 6.904938 -6.021895 2.933428 -37.607752 44.090804 12.812452 -13.471233 -13.770931 -5.154590 38.249759 -22.532094 -1.248897 5.527688 0.000000 0.000000 0.000000 10.440480 -71.353306 10.020752 0.740025 4.966973 2.996534 0.343652 3.513645 0.951400 0.520813 -4.053153 1.184116 0.000000 0.000000 0.000000 0.365631 3.381521 0.758274 -1.147290 6.643197 -1.647587 3.348340 33.048820 -2.551955 0.000000 0.000000 0.000000 0.592405 3.486496 0.966073 0.913642 8.461460 -6.179801 -0.349742 -0.244333 -4.393567 -5.600496 0.060006 -61.257378 179.746987 -63.173601 -177.705253 0.000000 0.000000 0.000000 0.711729 3.606997 0.508127 1.705934 7.950164 7.658333 -2.123294 4.914216 2.945093 -8.513458 27.628563 44.847869 -177.823292 66.740340 176.921748 0.000000 0.000000 0.000000 
4.463351 29.993898 -1.650565 0.000000 0.000000 0.000000 4.670000 -68.439670 4.785979 -38.296512 -10.008870 28.880215 28.112000 -17.936319 8.016300 3.149877 -16.752786 -35.092744 -1.267317 0.736770 0.351130 0.000000 0.000000 0.000000 4.477708 -66.187511 6.088512 -5.966435 0.427720 -34.321100 41.632025 12.272510 -13.729568 -8.046815 -3.326529 37.453380 -25.226207 -2.325140 6.655906 0.000000 0.000000 0.000000 7.155698 -67.169761 7.004910 0.811979 4.564183 3.017226 0.181712 3.312510 0.788208 0.070800 -3.369246 1.148650 0.000000 0.000000 0.000000 0.160180 3.167644 0.640164 -0.835697 6.177900 -1.733152 3.669278 30.447528 -1.467483 0.000000 0.000000 0.000000 0.397518 3.279169 0.855919 0.984679 7.181388 -5.320889 0.209319 0.061889 -4.331548 -4.201108 -4.639731 -57.619517 -179.713123 -62.696062 -177.670951 0.000000 0.000000 0.000000 0.481707 3.372354 0.417535 1.513193 7.591550 6.778839 -2.379418 4.777965 2.284182 -6.265384 24.211282 43.237058 -178.585582 64.905587 177.494405 0.000000 0.000000 0.000000 
4.165386 32.324955 -1.841031 0.000000 0.000000 0.000000 4.788308 -63.666905 4.862119 -34.786806 -5.550109 26.242999 20.565968 -15.190182 5.820802 7.373549 -15.214492 -28.428762 0.021451 0.408558 0.330528 0.000000 0.000000 0.000000 3.433927 -60.889019 5.269012 -7.116211 -1.584776 -30.626770 40.216000 10.661910 -13.637193 -6.600318 -3.034999 33.186629 -21.561317 -2.722523 7.049678 0.000000 0.000000 0.000000 4.966555 -62.438325 5.311280 1.129238 3.996082 2.970670 0.226185 3.030059 0.617965 0.231904 -2.592294 1.032203 0.000000 0.000000 0.000000 0.034004 2.849449 0.537437 -0.877747 5.745881 -1.889929 3.489664 27.866516 -0.471130 0.000000 0.000000 0.000000 0.327016 2.980424 0.742862 1.183012 5.709416 -5.205417 0.200575 0.052292 -3.991596 -3.417841 -8.491283 -54.393065 -179.068681 -62.821833 -177.608018 0.000000 0.000000 0.000000 0.454991 3.079241 0.324364 1.285540 7.391737 6.105694 -2.404043 4.382580 1.425942 -4.796730 20.754332 41.708328 -179.356601 64.428532 178.165116 0.000000 0.000000 0.000000 
3.835889 34.178776 -2.062405 0.000000 0.000000 0.000000 4.801814 -59.601993 5.202188 -29.858541 -1.115858 23.944985 17.003049 -11.723313 4.741775 6.532043 -10.549656 -22.089472 -0.443423 0.157859 0.171856 0.000000 0.000000 0.000000 2.413356 -55.804517 4.675393 -9.950317 -2.585708 -27.515528 39.891430 8.304122 -12.772662 -8.690354 -3.261344 26.868275 -12.965819 -2.299253 6.630815 0.000000 0.000000 0.000000 3.709199 -57.466807 4.722275 1.545294 3.297378 2.727345 0.538205 2.660288 0.450320 0.850118 -1.733940 0.855483 0.000000 0.000000 0.000000 0.045211 2.448766 0.463145 -1.204300 5.296947 -2.086607 2.867820 25.463668 0.288830 0.000000 0.000000 0.000000 0.417599 2.589467 0.620942 1.418330 4.183193 -5.845489 -0.408418 -0.160520 -3.337075 -3.543549 -11.069420 -52.181515 -178.505915 -63.698303 -177.642634 0.000000 0.000000 0.000000 0.600167 2.730585 0.228912 1.138115 7.300572 5.771431 -2.105171 3.879295 0.427794 -4.271583 17.573885 40.756818 179.927742 65.506500 178.923185 0.000000 0.000000 0.000000 
3.490393 35.374340 -2.318237 0.000000 0.000000 0.000000 4.636388 -56.237831 5.680026 -24.857679 2.518296 22.116217 17.992597 -8.816671 4.217638 2.376093 -5.340825 -17.690369 -2.412809 -0.001794 -0.136976 0.000000 0.000000 0.000000 1.635789 -51.514397 4.504236 -14.635246 -2.201797 -25.538798 39.415191 6.049033 -11.497385 -10.425637 -2.476186 21.465010 -4.251051 -1.490757 5.146446 0.000000 0.000000 0.000000 3.231694 -52.444860 4.783022 1.902628 2.475463 2.230791 0.976712 2.212522 0.279648 1.467481 -1.332011 0.534652 0.000000 0.000000 0.000000 0.190818 1.984410 0.375465 -1.735983 4.854887 -2.255619 1.978775 23.243567 0.857142 0.000000 0.000000 0.000000 0.651129 2.120199 0.462636 1.591257 2.783859 -6.891415 -1.391967 -0.445415 -2.486616 -4.725153 -12.478017 -51.216119 -178.214211 -65.003860 -177.920977 0.000000 0.000000 0.000000 0.850049 2.322477 0.104488 1.069677 7.298883 5.779755 -1.549394 3.450332 -0.441523 -4.613940 14.832287 40.692928 179.228890 67.783590 179.834373 0.000000 0.000000 0.000000 
3.187061 35.856274 -2.562035 0.000000 0.000000 0.000000 4.079281 -52.630337 5.798279 -20.850737 4.686404 21.109103 23.118041 -6.903268 3.730975 -2.083862 -0.865030 -15.575432 -3.709365 -0.074842 -0.770184 0.000000 0.000000 0.000000 1.330217 -47.984685 4.678045 -20.770252 -0.079410 -24.877321 37.342198 5.337785 -10.152002 -9.135384 -0.078247 19.673971 1.052775 -0.659999 2.853912 0.000000 0.000000 0.000000 3.174111 -47.535487 4.952485 2.126297 1.527863 1.471366 1.412860 1.710624 0.104708 1.847585 -1.251715 0.257358 0.000000 0.000000 0.000000 0.479218 1.486107 0.254928 -2.325720 4.422037 -2.329895 1.009228 21.062910 1.292890 0.000000 0.000000 0.000000 0.903876 1.618235 0.252118 1.630898 1.646099 -7.932590 -2.443449 -0.702361 -1.583679 -6.830934 -13.090276 -51.403136 -178.386605 -66.194150 -178.537019 0.000000 0.000000 0.000000 1.115863 1.857320 -0.088400 1.060644 7.268144 6.082175 -0.940049 3.062684 -0.891941 -5.735489 12.528286 41.470470 178.621400 70.589575 -179.219205 0.000000 0.000000 0.000000 
